# xmcd CD database file
#
# Track frame offsets:
#	150
#	59265
#	87337
#	139660
#	166480
#	194358
#	234144
#
# Disc length: 3463 seconds
#
# Revision: 0
# Processed by: cddbd v1.5.2PL0 Copyright (c) Steve Scherf et al.
# Submitted via: CDex 1.51
#
DISCID=550d8507
DTITLE=Bryan McNamara and Souls' Calling - Love for All
DYEAR=2007
DGENRE=Jazz
TTITLE0=Prayer of Thanks
TTITLE1=Pop-pop
TTITLE2=Sort of Simple
TTITLE3=Queen's Song
TTITLE4=What the Fuck
TTITLE5=How 'bout it?
TTITLE6=Love for All
EXTD=YEAR: 2007
EXTT0=
EXTT1=
EXTT2=
EXTT3=
EXTT4=
EXTT5=
EXTT6=
PLAYORDER=
